<?xml version="1.0" encoding="UTF-8" standalone="no"?><!DOCTYPE svg PUBLIC "-//W3C//DTD SVG 1.1//EN" "http://www.w3.org/Graphics/SVG/1.1/DTD/svg11.dtd"><svg width="100%" height="100%" viewBox="0 0 62 62" version="1.1" xmlns="http://www.w3.org/2000/svg" xmlns:xlink="http://www.w3.org/1999/xlink" xml:space="preserve" xmlns:serif="http://www.serif.com/" style="fill-rule:evenodd;clip-rule:evenodd;stroke-linecap:round;stroke-linejoin:round;stroke-miterlimit:1.5;"><path d="M60.24,15.96c0,-8.146 -6.614,-14.76 -14.76,-14.76l-29.52,-0c-8.146,-0 -14.76,6.614 -14.76,14.76l0,29.52c0,8.146 6.614,14.76 14.76,14.76l29.52,0c8.146,0 14.76,-6.614 14.76,-14.76l0,-29.52Z" style="fill:#fff;stroke:#000;stroke-width:2.5px;"/><path d="M21.6,2.4l-5.568,0c-7.524,0 -13.632,6.108 -13.632,13.632l0,29.376c0,7.524 6.108,13.632 13.632,13.632l5.568,0l0,-56.64Z" style="fill:#ff7f6d;"/><text x="29.448px" y="44.081px" style="font-family:'Nunito-Regular', 'Nunito';font-size:2px;">abcdefghijklmnopqrstuvwxyz</text><text x="23.928px" y="13.841px" style="font-family:'Nunito-Regular', 'Nunito';font-size:2px;">abcdefghijklmnopqrstuvwxyz</text><text x="29.448px" y="18.161px" style="font-family:'Nunito-Regular', 'Nunito';font-size:2px;">abcdefghijklmnopqrstuvwxyz</text><text x="23.928px" y="22.481px" style="font-family:'Nunito-Bold', 'Nunito';font-weight:700;font-size:2px;">abcdefghijklmnopqrstuvwxyz</text><text x="29.448px" y="26.561px" style="font-family:'Nunito-Regular', 'Nunito';font-size:2px;">abcdefghijklmnopqrstuvwxyz</text><text x="23.928px" y="30.881px" style="font-family:'Nunito-Regular', 'Nunito';font-size:2px;">abcdefghijklmnopqrstuvwxyz</text><text x="29.448px" y="34.961px" style="font-family:'Nunito-Regular', 'Nunito';font-size:2px;">abcdefghijklmnopqrstuvwxyz</text><text x="23.928px" y="39.521px" style="font-family:'Nunito-Bold', 'Nunito';font-weight:700;font-size:2px;">abcdefghijklmnopqrstuvwxyz</text><text x="23.928px" y="48.641px" style="font-family:'Nunito-Regular', 'Nunito';font-size:2px;">abcdefghijklmnopqrstuvwxyz</text></svg>