<?xml version="1.0" encoding="UTF-8" standalone="no"?><!DOCTYPE svg PUBLIC "-//W3C//DTD SVG 1.1//EN" "http://www.w3.org/Graphics/SVG/1.1/DTD/svg11.dtd"><svg width="100%" height="100%" viewBox="0 0 62 62" version="1.1" xmlns="http://www.w3.org/2000/svg" xmlns:xlink="http://www.w3.org/1999/xlink" xml:space="preserve" xmlns:serif="http://www.serif.com/" style="fill-rule:evenodd;clip-rule:evenodd;stroke-linecap:round;stroke-linejoin:round;stroke-miterlimit:1.5;"><path d="M60.24,15.96c-0,-8.146 -6.614,-14.76 -14.76,-14.76l-29.52,-0c-8.146,-0 -14.76,6.614 -14.76,14.76l-0,29.52c-0,8.146 6.614,14.76 14.76,14.76l29.52,0c8.146,0 14.76,-6.614 14.76,-14.76l-0,-29.52Z" style="fill:#fff;stroke:#000;stroke-width:2.5px;"/><g transform="matrix(0.70737,-0.706844,0.706844,0.70737,-32.7285,-9.50695)"><text x="-0.529px" y="65.349px" style="font-family:'AppleColorEmoji', 'Apple Color Emoji';font-size:10.6px;">📌</text></g><path d="M54.72,24.721c0,-3.311 -2.689,-6 -6,-6l-36,0c-3.311,0 -6,2.689 -6,6l0,12c0,3.312 2.689,6 6,6l36,0c3.311,0 6,-2.688 6,-6l0,-12Z" style="fill:#f00;fill-opacity:0.14;"/></svg>