<?xml version="1.0" encoding="UTF-8" standalone="no"?>
<!DOCTYPE svg PUBLIC "-//W3C//DTD SVG 1.1//EN" "http://www.w3.org/Graphics/SVG/1.1/DTD/svg11.dtd">
<svg width="100%" height="100%" viewBox="0 0 256 256" version="1.1" xmlns="http://www.w3.org/2000/svg" xmlns:xlink="http://www.w3.org/1999/xlink" xml:space="preserve" xmlns:serif="http://www.serif.com/" style="fill-rule:evenodd;clip-rule:evenodd;stroke-linejoin:round;stroke-miterlimit:2;">
    <g transform="matrix(1.48837,0,0,1.50588,-84.8372,-51.2)">
        <path d="M229,76.5C229,53.044 209.732,34 186,34L100,34C76.268,34 57,53.044 57,76.5L57,161.5C57,184.956 76.268,204 100,204L186,204C209.732,204 229,184.956 229,161.5L229,76.5Z"/>
    </g>
    <g transform="matrix(1.43023,0,0,1.44706,-76.5233,-44.2)">
        <path d="M229,76.5C229,53.044 209.732,34 186,34L100,34C76.268,34 57,53.044 57,76.5L57,161.5C57,184.956 76.268,204 100,204L186,204C209.732,204 229,184.956 229,161.5L229,76.5Z" style="fill:rgb(255,227,0);"/>
    </g>
    <g transform="matrix(1,0,0,1,-27,20)">
        <g transform="matrix(100,0,0,100,136.003,201.718)">
            <path d="M0.527,-0.693L0.527,-0.25C0.527,-0.209 0.521,-0.173 0.509,-0.14C0.496,-0.107 0.478,-0.08 0.454,-0.057C0.43,-0.034 0.401,-0.016 0.367,-0.004C0.332,0.009 0.293,0.015 0.249,0.015C0.204,0.015 0.165,0.009 0.133,-0.002C0.1,-0.014 0.069,-0.03 0.039,-0.05L0.102,-0.151C0.125,-0.135 0.147,-0.123 0.168,-0.117C0.189,-0.11 0.212,-0.107 0.239,-0.107C0.274,-0.107 0.304,-0.118 0.328,-0.141C0.352,-0.164 0.364,-0.2 0.364,-0.248L0.364,-0.573L0.151,-0.573L0.151,-0.693L0.527,-0.693Z" style="fill-rule:nonzero;"/>
        </g>
        <g transform="matrix(100,0,0,100,196.003,201.718)">
            <path d="M0.568,-0.203C0.568,-0.16 0.557,-0.122 0.534,-0.089C0.512,-0.055 0.48,-0.03 0.438,-0.011C0.396,0.008 0.345,0.017 0.286,0.017C0.221,0.017 0.166,0.007 0.122,-0.012C0.078,-0.031 0.041,-0.055 0.012,-0.083L0.095,-0.175C0.121,-0.153 0.149,-0.135 0.18,-0.123C0.211,-0.111 0.245,-0.105 0.282,-0.105C0.305,-0.105 0.325,-0.108 0.343,-0.115C0.36,-0.122 0.373,-0.131 0.383,-0.144C0.393,-0.157 0.398,-0.172 0.398,-0.19C0.398,-0.207 0.394,-0.221 0.386,-0.233C0.378,-0.245 0.365,-0.255 0.347,-0.265C0.329,-0.274 0.304,-0.283 0.272,-0.293C0.218,-0.31 0.174,-0.328 0.141,-0.348C0.108,-0.368 0.085,-0.391 0.07,-0.418C0.055,-0.444 0.048,-0.475 0.048,-0.51C0.048,-0.552 0.059,-0.588 0.083,-0.618C0.106,-0.648 0.138,-0.671 0.178,-0.687C0.217,-0.703 0.261,-0.711 0.309,-0.711C0.362,-0.711 0.409,-0.703 0.451,-0.687C0.492,-0.672 0.527,-0.65 0.557,-0.621L0.48,-0.532C0.456,-0.552 0.431,-0.566 0.404,-0.576C0.377,-0.585 0.349,-0.59 0.322,-0.59C0.301,-0.59 0.283,-0.587 0.267,-0.582C0.251,-0.577 0.239,-0.57 0.231,-0.56C0.222,-0.55 0.218,-0.537 0.218,-0.522C0.218,-0.507 0.222,-0.495 0.23,-0.485C0.238,-0.475 0.253,-0.466 0.274,-0.457C0.294,-0.448 0.323,-0.438 0.36,-0.426C0.403,-0.413 0.441,-0.397 0.472,-0.378C0.503,-0.36 0.527,-0.337 0.543,-0.309C0.56,-0.281 0.568,-0.245 0.568,-0.203Z" style="fill-rule:nonzero;"/>
        </g>
    </g>
</svg>
