<svg viewBox="0 0 430 325" width="430" height="325" xmlns="http://www.w3.org/2000/svg">
  <!-- Font Awesome Free 5.15.3 by @fontawesome - https://fontawesome.com License - https://fontawesome.com/license/free (Icons: CC BY 4.0, Fonts: SIL OFL 1.1, Code: MIT License) Changes have been made -->
  <path fill="currentColor" d="M 374.167 25.719 C 374.167 -11.292 343.841 -45.716 307.123 -45.716 C 270.404 -45.716 235.981 -16.268 235.981 20.45 C 235.981 50.689 259.973 80.583 287.553 88.641 C 289.397 102.016 282.015 143.639 280.172 149.739 C 274.259 169.312 238.924 181.521 209.101 184.263 C 185.675 186.423 161.417 188.749 141.563 198.302 L 141.563 78.677 C 168.562 70.204 188.084 45.032 188.084 15.292 C 188.084 -21.426 158.344 -51.166 121.625 -51.166 C 84.907 -51.166 55.167 -21.426 55.167 15.292 C 55.167 45.032 74.689 70.204 101.688 78.677 L 101.688 244.241 C 74.689 252.798 55.167 277.969 55.167 307.709 C 55.167 344.427 84.907 374.167 121.625 374.167 C 158.344 374.167 188.084 344.427 188.084 307.709 C 188.084 279.464 170.472 255.29 145.55 245.737 C 148.126 241.417 152.03 237.595 157.928 234.605 C 171.386 227.793 191.49 225.965 212.839 223.972 C 247.896 220.732 288.593 210.604 308.69 179.135 C 318.856 163.216 328.268 112.701 326.341 89.65 C 352.592 80.678 374.167 54.961 374.167 25.719 Z M 121.625 2.001 C 128.936 2.001 134.917 7.982 134.917 15.292 C 134.917 22.603 128.936 28.584 121.625 28.584 C 114.315 28.584 108.334 22.603 108.334 15.292 C 108.334 7.982 114.315 2.001 121.625 2.001 Z M 121.625 321.001 C 114.315 321.001 108.334 315.019 108.334 307.709 C 108.334 300.399 114.315 294.417 121.625 294.417 C 128.936 294.417 134.917 300.399 134.917 307.709 C 134.917 315.019 128.936 321.001 121.625 321.001 Z M 307.123 8.621 C 315.548 8.388 321.586 15.775 321.586 23.085 C 321.586 30.395 314.141 38.133 306.831 38.133 C 299.52 38.133 291.022 33.06 291.489 23.084 C 291.956 13.108 298.698 8.854 307.123 8.621 Z" transform="matrix(0, 1, -1, 0, 376.167511, -53.166496)"/>
</svg>
