<?xml version="1.0" encoding="UTF-8" standalone="no"?>
<!DOCTYPE svg PUBLIC "-//W3C//DTD SVG 1.1//EN" "http://www.w3.org/Graphics/SVG/1.1/DTD/svg11.dtd">
<svg width="100%" height="100%" viewBox="0 0 256 256" version="1.1" xmlns="http://www.w3.org/2000/svg" xmlns:xlink="http://www.w3.org/1999/xlink" xml:space="preserve" xmlns:serif="http://www.serif.com/" style="fill-rule:evenodd;clip-rule:evenodd;stroke-linecap:round;stroke-linejoin:round;stroke-miterlimit:1.5;">
    <g transform="matrix(1.12329,0,0,1.00408,-30.9452,-0.0204082)">
        <path d="M251,66.25C251,32.445 226.467,5 196.25,5L86.75,5C56.533,5 32,32.445 32,66.25L32,188.75C32,222.555 56.533,250 86.75,250L196.25,250C226.467,250 251,222.555 251,188.75L251,66.25Z" style="fill:white;stroke:black;stroke-width:9.78px;"/>
    </g>
    <g transform="matrix(1,0,0,1,-13.6551,33.3)">
        <text x="35.128px" y="124.526px" style="font-family:'Arial-BoldMT', 'Arial', sans-serif;font-weight:700;font-size:83.333px;fill:rgb(12,0,0);">TE</text>
        <text x="141.614px" y="124.526px" style="font-family:'Arial-BoldMT', 'Arial', sans-serif;font-weight:700;font-size:83.333px;fill:rgb(255,0,0);">XT</text>
    </g>
    <g transform="matrix(1,0,0,1.23711,0,-33.9691)">
        <path d="M128,80L45.5,80C30.322,80 18,89.961 18,102.229L18,154.771C18,167.039 30.322,177 45.5,177L128,177L128,80Z" style="fill:rgb(255,0,0);fill-opacity:0.21;"/>
    </g>
</svg>
