<?xml version="1.0" encoding="UTF-8" standalone="no"?>
<!DOCTYPE svg PUBLIC "-//W3C//DTD SVG 1.1//EN" "http://www.w3.org/Graphics/SVG/1.1/DTD/svg11.dtd">
<svg width="100%" height="100%" viewBox="0 0 1418 1772" version="1.1" xmlns="http://www.w3.org/2000/svg" xmlns:xlink="http://www.w3.org/1999/xlink" xml:space="preserve" xmlns:serif="http://www.serif.com/" style="fill-rule:evenodd;clip-rule:evenodd;stroke-linecap:round;stroke-linejoin:round;stroke-miterlimit:1.5;">
    <g transform="matrix(1.02234,0.214295,-0.185949,0.887113,-84.6155,-594.227)">
        <path d="M1567.83,813.068C1567.83,663.857 1462.71,542.716 1333.24,542.716L864.053,542.716C734.579,542.716 629.462,663.857 629.462,813.068L629.462,1705.29C629.462,1854.5 734.579,1975.64 864.053,1975.64L1333.24,1975.64C1462.71,1975.64 1567.83,1854.5 1567.83,1705.29L1567.83,813.068Z" style="fill:none;stroke:black;stroke-width:85.21px;"/>
    </g>
    <g transform="matrix(1.04456,0,0,0.977668,-605.956,-262.144)">
        <path d="M1567.83,793.358C1567.83,655.025 1462.71,542.716 1333.24,542.716L864.053,542.716C734.579,542.716 629.462,655.025 629.462,793.358L629.462,1725C629.462,1863.33 734.579,1975.64 864.053,1975.64L1333.24,1975.64C1462.71,1975.64 1567.83,1863.33 1567.83,1725L1567.83,793.358Z" style="stroke:black;stroke-width:82.37px;"/>
    </g>
</svg>
