<?xml version="1.0" encoding="UTF-8" standalone="no"?><!DOCTYPE svg PUBLIC "-//W3C//DTD SVG 1.1//EN" "http://www.w3.org/Graphics/SVG/1.1/DTD/svg11.dtd"><svg width="100%" height="100%" viewBox="0 0 225 203" version="1.1" xmlns="http://www.w3.org/2000/svg" xmlns:xlink="http://www.w3.org/1999/xlink" xml:space="preserve" xmlns:serif="http://www.serif.com/" style="fill-rule:evenodd;clip-rule:evenodd;stroke-linejoin:round;stroke-miterlimit:2;"><g id="Background"><g><path d="M39,171c0,-4.967 -4.033,-9 -9,-9l-18,0c-4.967,0 -9,4.033 -9,9l0,19c0,4.967 4.033,9 9,9l18,0c4.967,0 9,-4.033 9,-9l0,-19Z"/><path d="M220,173.25c0,-3.449 -2.801,-6.25 -6.25,-6.25l-152.5,0c-3.449,0 -6.25,2.801 -6.25,6.25l0,12.5c0,3.449 2.801,6.25 6.25,6.25l152.5,0c3.449,0 6.25,-2.801 6.25,-6.25l0,-12.5Z"/></g><g><path d="M39,12c0,-4.967 -4.033,-9 -9,-9l-18,0c-4.967,0 -9,4.033 -9,9l0,19c0,4.967 4.033,9 9,9l18,0c4.967,0 9,-4.033 9,-9l0,-19Z"/><path d="M220,14.25c0,-3.449 -2.801,-6.25 -6.25,-6.25l-152.5,0c-3.449,0 -6.25,2.801 -6.25,6.25l0,12.5c0,3.449 2.801,6.25 6.25,6.25l152.5,0c3.449,0 6.25,-2.801 6.25,-6.25l0,-12.5Z"/></g><g><path d="M39,65c0,-4.967 -4.033,-9 -9,-9l-18,0c-4.967,0 -9,4.033 -9,9l0,19c0,4.967 4.033,9 9,9l18,0c4.967,0 9,-4.033 9,-9l0,-19Z"/><path d="M220,67.25c0,-3.449 -2.801,-6.25 -6.25,-6.25l-152.5,0c-3.449,0 -6.25,2.801 -6.25,6.25l0,12.5c0,3.449 2.801,6.25 6.25,6.25l152.5,0c3.449,0 6.25,-2.801 6.25,-6.25l0,-12.5Z"/></g><g><path d="M39,119c0,-4.967 -4.033,-9 -9,-9l-18,0c-4.967,0 -9,4.033 -9,9l0,19c0,4.967 4.033,9 9,9l18,0c4.967,0 9,-4.033 9,-9l0,-19Z"/><path d="M220,121.25c0,-3.449 -2.801,-6.25 -6.25,-6.25l-152.5,0c-3.449,0 -6.25,2.801 -6.25,6.25l0,12.5c0,3.449 2.801,6.25 6.25,6.25l152.5,0c3.449,0 6.25,-2.801 6.25,-6.25l0,-12.5Z"/></g></g></svg>