<?xml version="1.0" encoding="UTF-8" standalone="no"?><!DOCTYPE svg PUBLIC "-//W3C//DTD SVG 1.1//EN" "http://www.w3.org/Graphics/SVG/1.1/DTD/svg11.dtd"><svg width="100%" height="100%" viewBox="0 0 62 62" version="1.1" xmlns="http://www.w3.org/2000/svg" xmlns:xlink="http://www.w3.org/1999/xlink" xml:space="preserve" xmlns:serif="http://www.serif.com/" style="fill-rule:evenodd;clip-rule:evenodd;stroke-linecap:round;stroke-linejoin:round;stroke-miterlimit:1.5;"><path d="M60.24,15.96c-0,-8.146 -6.614,-14.76 -14.76,-14.76l-29.52,0c-8.146,0 -14.76,6.614 -14.76,14.76l0,29.52c0,8.146 6.614,14.76 14.76,14.76l29.52,0c8.146,0 14.76,-6.614 14.76,-14.76l-0,-29.52Z" style="fill:#fff;stroke:#000;stroke-width:2.5px;"/><path d="M8.52,30.72l44.4,0" style="fill:none;stroke:#000;stroke-width:2.5px;"/><text x="8.075px" y="10.09px" style="font-family:'Nunito-Regular', 'Nunito';font-size:6px;">Lorem Ipsum has</text><text x="3.702px" y="25.181px" style="font-family:'Nunito-Regular', 'Nunito';font-size:6px;">ply dummy t<tspan x="37.35px " y="25.181px ">e</tspan>xt of t</text><text x="3.44px" y="17.634px" style="font-family:'Nunito-Regular', 'Nunito';font-size:6px;">Lorem Ipsum is simp</text><text x="4.022px" y="38.947px" style="font-family:'Nunito-Regular', 'Nunito';font-size:6px;">he printing and type</text><text x="4.189px" y="47.246px" style="font-family:'Nunito-Regular', 'Nunito';font-size:6px;">setting industr<tspan x="43.237px 46.027px " y="47.246px 47.246px ">y.</tspan> 19</text><text x="10.493px" y="55.002px" style="font-family:'Nunito-Regular', 'Nunito';font-size:6px;">took a galley o<tspan x="49.823px " y="55.002px ">f</tspan></text></svg>