<?xml version="1.0" encoding="UTF-8" standalone="no"?><!DOCTYPE svg PUBLIC "-//W3C//DTD SVG 1.1//EN" "http://www.w3.org/Graphics/SVG/1.1/DTD/svg11.dtd"><svg width="100%" height="100%" viewBox="0 0 256 256" version="1.1" xmlns="http://www.w3.org/2000/svg" xmlns:xlink="http://www.w3.org/1999/xlink" xml:space="preserve" xmlns:serif="http://www.serif.com/" style="fill-rule:evenodd;clip-rule:evenodd;stroke-linecap:round;stroke-linejoin:round;stroke-miterlimit:1.5;"><path d="M251,66.5c0,-33.943 -27.557,-61.5 -61.5,-61.5l-123,0c-33.943,0 -61.5,27.557 -61.5,61.5l-0,123c-0,33.943 27.557,61.5 61.5,61.5l123,0c33.943,0 61.5,-27.557 61.5,-61.5l0,-123Z" style="fill:#e1f6e0;stroke:#000;stroke-width:10.42px;"/><path d="M32,71c76.374,0 -41.759,0 80,0" style="fill:none;stroke:#000;stroke-width:10.42px;"/><path d="M117,38.5c50.598,0 -14.665,0 38,0" style="fill:none;stroke:#000;stroke-width:10.42px;"/><path d="M117,99.5c50.598,0 -42.665,0 38,0" style="fill:none;stroke:#000;stroke-width:10.42px;"/><path d="M183,116.5c50.598,0 -42.665,0 38,0" style="fill:none;stroke:#000;stroke-width:10.42px;"/><path d="M183,178.5c50.598,0 -42.665,0 38,0" style="fill:none;stroke:#000;stroke-width:10.42px;"/><path d="M124,222.5c50.598,0 -42.665,0 38,0" style="fill:none;stroke:#000;stroke-width:10.42px;"/><path d="M67.014,148c95.467,0 -39.198,0 113,0" style="fill:none;stroke:#000;stroke-width:10.42px;"/><path d="M66.971,71c0.028,119.334 -0.015,-65.248 0.029,125" style="fill:none;stroke:#000;stroke-width:10.42px;"/><path d="M117,38.5c0.013,58.235 -0.007,-31.841 0.014,61" style="fill:none;stroke:#000;stroke-width:10.42px;"/><path d="M183,117.5c0.013,58.235 -0.007,-31.841 0.014,61" style="fill:none;stroke:#000;stroke-width:10.42px;"/><path d="M124,148c0.013,58.235 -0.021,-18.341 -0,74.5" style="fill:none;stroke:#000;stroke-width:10.42px;"/></svg>