<?xml version="1.0" encoding="UTF-8" standalone="no"?><!DOCTYPE svg PUBLIC "-//W3C//DTD SVG 1.1//EN" "http://www.w3.org/Graphics/SVG/1.1/DTD/svg11.dtd"><svg width="100%" height="100%" viewBox="0 0 256 256" version="1.1" xmlns="http://www.w3.org/2000/svg" xmlns:xlink="http://www.w3.org/1999/xlink" xml:space="preserve" xmlns:serif="http://www.serif.com/" style="fill-rule:evenodd;clip-rule:evenodd;stroke-linecap:round;stroke-linejoin:round;stroke-miterlimit:1.5;"><g><path d="M251,66.5c-0,-33.943 -27.558,-61.5 -61.5,-61.5l-123,0c-33.943,0 -61.5,27.557 -61.5,61.5l0,123c0,33.943 27.557,61.5 61.5,61.5l123,0c33.942,0 61.5,-27.557 61.5,-61.5l-0,-123Z" style="fill:#fff;stroke:#000;stroke-width:10.42px;"/></g><g><path d="M124,60.999c-0,-5.518 -4.481,-9.999 -10,-9.999l-80,0c-5.519,0 -10,4.481 -10,9.999l-0,134.002c-0,5.519 4.481,9.999 10,9.999l80,0c5.519,0 10,-4.48 10,-9.999l-0,-134.002Z" style="fill:#f00;fill-opacity:0.38;"/></g><g><path d="M234,61.001c-0,-5.519 -4.481,-10.001 -10,-10.001l-80,0c-5.519,0 -10,4.482 -10,10.001l-0,85.998c-0,5.52 4.481,10.001 10,10.001l80,0c5.519,0 10,-4.481 10,-10.001l-0,-85.998Z" style="fill:#00960a;fill-opacity:0.4;"/></g><g><path d="M226.5,71c0,-2.76 -2.24,-5 -5,-5l-75,0c-2.76,0 -5,2.24 -5,5l0,10c0,2.76 2.24,5 5,5l75,0c2.76,0 5,-2.24 5,-5l0,-10Z" style="fill:#fff;"/></g><g><path d="M226.5,123c0,-2.76 -2.24,-5 -5,-5l-75,0c-2.76,0 -5,2.24 -5,5l0,10c0,2.76 2.24,5 5,5l75,0c2.76,0 5,-2.24 5,-5l0,-10Z" style="fill:#fff;"/></g><g><path d="M226.5,97c0,-2.76 -2.24,-5 -5,-5l-75,0c-2.76,0 -5,2.24 -5,5l0,10c0,2.76 2.24,5 5,5l75,0c2.76,0 5,-2.24 5,-5l0,-10Z" style="fill:#fff;"/></g><g><path d="M116.5,176c0,-2.76 -2.24,-5 -5,-5l-75,0c-2.76,0 -5,2.24 -5,5l0,10c0,2.76 2.24,5 5,5l75,0c2.76,0 5,-2.24 5,-5l0,-10Z" style="fill:#fff;"/></g><g><path d="M116,149c0,-2.76 -2.24,-5 -5,-5l-75,0c-2.76,0 -5,2.24 -5,5l0,10c0,2.76 2.24,5 5,5l75,0c2.76,0 5,-2.24 5,-5l0,-10Z" style="fill:#fff;"/></g><g><path d="M116,123c0,-2.76 -2.24,-5 -5,-5l-75,0c-2.76,0 -5,2.24 -5,5l0,10c0,2.76 2.24,5 5,5l75,0c2.76,0 5,-2.24 5,-5l0,-10Z" style="fill:#fff;"/></g><g><path d="M116,123c0,-2.76 -2.24,-5 -5,-5l-75,0c-2.76,0 -5,2.24 -5,5l0,10c0,2.76 2.24,5 5,5l75,0c2.76,0 5,-2.24 5,-5l0,-10Z" style="fill:#fff;"/></g><g><path d="M116,97c0,-2.76 -2.24,-5 -5,-5l-75,0c-2.76,0 -5,2.24 -5,5l0,10c0,2.76 2.24,5 5,5l75,0c2.76,0 5,-2.24 5,-5l0,-10Z" style="fill:#fff;"/></g><path d="M116,71c0,-2.76 -2.24,-5 -5,-5l-75,0c-2.76,0 -5,2.24 -5,5l0,10c0,2.76 2.24,5 5,5l75,0c2.76,0 5,-2.24 5,-5l0,-10Z" style="fill:#fff;"/></svg>